#!OML:ASF F:\twosubjects\two\Thursday\Session 1\Rory.ASF
:FULLY-SPECIFIED
:DEGREES
442
root 14.1478 13.429 5.17516 207.07 -89.1576 -210.289
lowerback 21.6493 0.191791 -1.15094
upperback 4.04648 -0.274724 0.149131
thorax -7.6687 -0.221753 0.911629
lowerneck -16.2983 2.67192 3.16015
upperneck 6.44732 2.89238 -0.234949
head 4.6065 1.47676 -0.33207
rclavicle 5.22431e-015 2.18663e-015
rhumerus -34.2321 -17.6374 -62.3479
rradius 40.9853
rwrist 16.5753
rhand -27.1543 33.9937
rfingers 7.12502
rthumb -0.569094 4.01468
lclavicle 5.22431e-015 2.18663e-015
lhumerus -32.5384 13.0879 63.9468
lradius 34.4695
lwrist -22.1551
lhand -11.916 23.2899
lfingers 7.12502
lthumb 14.1379 52.7889
rfemur -47.4844 -22.5021 8.447
rtibia 106.17
rfoot -34.0079 18.309
rtoes -32.1524
lfemur -41.7267 28.4466 -4.10018
ltibia 105.281
lfoot -31.3191 -31.8959
ltoes -22.6235
443
root 14.1334 13.6002 5.17677 152.819 -88.9855 -155.705
lowerback 21.38 0.163982 -0.413185
upperback 3.86341 -0.102416 0.450606
thorax -7.73018 -0.146203 0.768505
lowerneck -16.2799 2.45593 2.99489
upperneck 6.48547 2.63937 -0.220292
head 4.60916 1.3499 -0.323112
rclavicle 2.16178e-015 -7.72775e-015
rhumerus -34.4148 -17.4596 -62.1561
rradius 40.8532
rwrist 16.0935
rhand -27.3596 33.8861
rfingers 7.12502
rthumb -0.767368 3.90778
lclavicle 2.16178e-015 -7.72775e-015
lhumerus -32.7583 12.812 64.256
lradius 34.587
lwrist -21.6863
lhand -11.877 23.1958
lfingers 7.12502
lthumb 14.1755 52.6922
rfemur -46.9415 -21.2431 10.0184
rtibia 104.479
rfoot -33.2002 18.263
rtoes -27.7015
lfemur -41.2315 28.2399 -3.81271
ltibia 103.747
lfoot -31.3885 -30.4286
ltoes -23.3828
444
root 14.1122 13.7656 5.1841 157.043 -89.0064 -159.705
lowerback 21.0313 0.0731018 -0.391483
upperback 3.80243 -0.215953 0.344384
thorax -7.61039 -0.199034 0.669525
lowerneck -16.4032 2.29642 3.02076
upperneck 6.55443 2.40504 -0.123977
head 4.64589 1.24208 -0.315843
rclavicle -1.66793e-015 -8.49804e-015
rhumerus -34.6042 -17.7635 -62.3103
rradius 40.9229
rwrist 15.9712
rhand -27.1676 34.0892
rfingers 7.12502
rthumb -0.582 4.11028
lclavicle -1.66793e-015 -8.49804e-015
lhumerus -32.9846 12.5625 64.2477
lradius 34.7581
lwrist -21.1056
lhand -11.9484 23.1682
lfingers 7.12502
lthumb 14.1067 52.6693
rfemur -46.2319 -20.3877 10.3223
rtibia 102.77
rfoot -32.8848 17.9082
rtoes -24.9503
lfemur -40.6208 28.0382 -4.56016
ltibia 102.165
lfoot -30.8203 -29.5207
ltoes -22.1378
445
root 14.0774 13.9888 5.19115 201.286 -89.1728 -203.848
lowerback 20.6893 0.0412714 -0.924319
upperback 3.82049 -0.385263 0.136596
thorax -7.40513 -0.269643 0.791185
lowerneck -16.6859 2.13834 2.73949
upperneck 6.80193 2.22025 0.092508
head 4.75974 1.16035 -0.215402
rclavicle 2.36057e-015 3.41661e-016
rhumerus -34.7862 -18.1318 -62.3456
rradius 41.2168
rwrist 16.563
rhand -26.9507 33.7876
rfingers 7.12502
rthumb -0.372519 3.80823
lclavicle 2.36057e-015 3.41661e-016
lhumerus -33.0163 12.751 64.2752
lradius 34.7017
lwrist -21.1045
lhand -11.6917 23.1106
lfingers 7.12502
lthumb 14.3541 52.5943
rfemur -44.7543 -19.9523 9.98464
rtibia 100.568
rfoot -33.6659 15.2316
rtoes -29.3482
lfemur -39.5783 27.1702 -6.17623
ltibia 100.116
lfoot -30.0984 -28.2496
ltoes -19.7505
446
root 14.0551 14.1544 5.18914 236.68 -88.7069 -239.169
lowerback 20.5208 0.155512 -1.75103
upperback 3.76475 -0.415478 0.0296802
thorax -7.37122 -0.264296 1.15396
lowerneck -16.8475 1.92222 2.26484
upperneck 7.03014 2.00606 0.315947
head 4.84711 1.05981 -0.0860238
rclavicle -2.73329e-016 -6.06293e-015
rhumerus -34.9185 -18.4856 -62.0165
rradius 41.1044
rwrist 17.351
rhand -26.9646 34.076
rfingers 7.12502
rthumb -0.385905 4.09659
lclavicle -2.73329e-016 -6.06293e-015
lhumerus -33.0713 13.0307 64.4633
lradius 34.589
lwrist -21.5836
lhand -10.9341 22.9864
lfingers 7.12502
lthumb 15.0839 52.4168
rfemur -43.6472 -19.4759 9.56066
rtibia 98.7536
rfoot -34.3132 12.0738
rtoes -34.156
lfemur -38.7793 26.4224 -7.76699
ltibia 98.2833
lfoot -29.8346 -26.7596
ltoes -17.8307
447
root 14.0342 14.3311 5.1848 236.815 -88.5541 -239.034
lowerback 20.1413 0.185861 -1.9291
upperback 3.68199 -0.403106 -0.0427833
thorax -7.25869 -0.251794 1.17083
lowerneck -16.7454 1.77481 2.14928
upperneck 6.8239 1.80796 0.568647
head 4.76129 0.974352 -0.00813871
rclavicle -1.1865e-015 -9.93923e-017
rhumerus -34.9139 -18.6724 -61.9916
rradius 40.7285
rwrist 17.2748
rhand -26.9266 35.1426
rfingers 7.12502
rthumb -0.349181 5.16313
lclavicle -1.1865e-015 -9.93923e-017
lhumerus -33.1544 12.9691 64.5223
lradius 34.582
lwrist -21.6861
lhand -10.7753 22.8087
lfingers 7.12502
lthumb 15.2369 52.2275
rfemur -42.8468 -18.5043 9.93669
rtibia 96.9014
rfoot -34.0115 11.0452
rtoes -32.432
lfemur -38.1152 26.0295 -8.59112
ltibia 96.3642
lfoot -30.3342 -24.8394
ltoes -18.5032
448
root 14.0057 14.5187 5.17938 237.077 -88.3828 -239.023
lowerback 19.6272 0.172517 -2.27207
upperback 3.66365 -0.474845 -0.0709633
thorax -6.99898 -0.279391 1.34944
lowerneck -16.6892 1.73696 1.9995
upperneck 6.67738 1.75664 0.872491
head 4.70229 0.963548 0.104944
rclavicle -4.00209e-015 -1.48467e-015
rhumerus -34.6417 -18.0736 -62.3081
rradius 40.4003
rwrist 16.4085
rhand -26.9745 35.0273
rfingers 7.12502
rthumb -0.395504 5.04793
lclavicle -4.00209e-015 -1.48467e-015
lhumerus -33.3428 12.9495 64.6338
lradius 34.7032
lwrist -21.2798
lhand -11.4705 22.8587
lfingers 7.12502
lthumb 14.5672 52.3272
rfemur -41.975 -17.4195 10.211
rtibia 94.9374
rfoot -33.4994 11.0189
rtoes -27.4484
lfemur -37.3559 25.7271 -9.39838
ltibia 94.4007
lfoot -30.9473 -22.7061
ltoes -21.0768
449
root 13.9799 14.7026 5.17667 239.438 -88.0722 -241.318
lowerback 19.3515 0.150505 -2.80481
upperback 3.68212 -0.602706 -0.0763588
thorax -6.82102 -0.332519 1.67575
lowerneck -16.8139 1.70434 1.75016
upperneck 6.87137 1.73817 1.09478
head 4.77861 0.964997 0.214886
rclavicle 3.57191e-015 -1.16786e-015
rhumerus -34.5396 -17.6542 -62.5754
rradius 40.3527
rwrist 16.3869
rhand -27.0006 33.8247
rfingers 7.12502
rthumb -0.420691 3.84535
lclavicle 3.57191e-015 -1.16786e-015
lhumerus -33.6221 13.3194 64.6957
lradius 34.8121
lwrist -21.1446
lhand -11.9767 23.1047
lfingers 7.12502
lthumb 14.0795 52.6078
rfemur -40.843 -16.3822 10.1818
rtibia 92.8888
rfoot -33.1714 10.4273
rtoes -25.2481
lfemur -36.3324 25.3277 -10.2059
ltibia 92.4002
lfoot -30.7004 -21.4087
ltoes -21.8549
450
root 13.9581 14.8777 5.18243 235.425 -88.1859 -237.213
lowerback 19.1134 0.0664383 -2.74955
upperback 3.67288 -0.680638 0.0508156
thorax -6.69862 -0.370652 1.797
lowerneck -16.891 1.5988 1.59088
upperneck 6.97896 1.62981 1.10012
head 4.8229 0.909212 0.233702
rclavicle 2.81405e-015 4.74598e-015
rhumerus -34.7755 -17.6106 -62.6286
rradius 40.6738
rwrist 16.7813
rhand -27.1842 33.0414
rfingers 7.12502
rthumb -0.598002 3.0625
lclavicle 2.81405e-015 4.74598e-015
lhumerus -33.9323 13.7242 64.8234
lradius 34.9347
lwrist -21.3484
lhand -11.9972 23.3287
lfingers 7.12502
lthumb 14.0597 52.8332
rfemur -39.701 -15.3757 10.6651
rtibia 90.7865
rfoot -32.8472 9.22481
rtoes -25.7888
lfemur -35.3923 24.8759 -10.391
ltibia 90.4706
lfoot -30.3035 -20.7736
ltoes -20.8183
451
root 13.9332 15.0449 5.18906 236.564 -88.414 -238.074
lowerback 18.7469 -0.0647495 -2.64295
upperback 3.55859 -0.799083 0.200355
thorax -6.61853 -0.424207 1.92068
lowerneck -16.9814 1.41928 1.30858
upperneck 7.18849 1.43853 1.2043
head 4.89988 0.817256 0.296339
rclavicle 6.52262e-015 1.3418e-014
rhumerus -34.9594 -17.2724 -62.6194
rradius 40.7876
rwrist 16.6947
rhand -27.4736 32.9347
rfingers 7.12502
rthumb -0.877501 2.95681
lclavicle 6.52262e-015 1.3418e-014
lhumerus -34.384 13.4528 65.1945
lradius 35.2691
lwrist -20.9808
lhand -11.9516 23.5472
lfingers 7.12502
lthumb 14.1036 53.0485
rfemur -38.6676 -14.7107 11.2343
rtibia 88.5856
rfoot -32.6212 7.04719
rtoes -28.7045
lfemur -34.7506 24.2269 -10.6546
ltibia 88.6067
lfoot -29.9233 -20.2217
ltoes -19.118
452
root 13.9141 15.1993 5.18747 235.265 -88.4295 -236.51
lowerback 18.4348 -0.0493335 -2.61991
upperback 3.46044 -0.759237 0.177938
thorax -6.55915 -0.401684 1.86992
lowerneck -17.1389 1.147 1.12757
upperneck 7.37109 1.08303 1.43802
head 4.98039 0.656368 0.368683
rclavicle -1.19395e-014 4.52235e-015
rhumerus -34.8999 -17.3386 -62.7182
rradius 40.3809
rwrist 16.6285
rhand -27.1001 33.1753
rfingers 7.12502
rthumb -0.516776 3.19613
lclavicle -1.19395e-014 4.52235e-015
lhumerus -34.5475 13.0873 65.3944
lradius 35.5027
lwrist -20.7279
lhand -11.5302 23.3819
lfingers 7.12502
lthumb 14.5097 52.8546
rfemur -37.7944 -13.9056 11.6352
rtibia 86.5075
rfoot -32.3137 5.45737
rtoes -30.7884
lfemur -34.0546 23.7298 -10.9969
ltibia 86.7731
lfoot -29.7689 -19.4524
ltoes -18.2379
453
root 13.9036 15.3473 5.18147 215.209 -88.503 -216.211
lowerback 18.2225 0.0608899 -2.19662
upperback 3.38634 -0.52118 0.194189
thorax -6.54012 -0.291373 1.58836
lowerneck -17.15 0.861839 1.00972
upperneck 7.2221 0.697439 1.69848
head 4.93534 0.480316 0.433815
rclavicle 1.10574e-014 -6.4605e-016
rhumerus -34.6986 -17.6072 -62.7875
rradius 39.7353
rwrist 16.5653
rhand -26.9075 33.9126
rfingers 7.12502
rthumb -0.33074 3.9331
lclavicle 1.10574e-014 -6.4605e-016
lhumerus -34.4258 13.4869 65.2836
lradius 35.389
lwrist -21.2903
lhand -10.8555 23.2098
lfingers 7.12502
lthumb 15.1597 52.6345
rfemur -37.1626 -12.606 12.3757
rtibia 84.6164
rfoot -31.5123 6.30448
rtoes -26.3849
lfemur -33.3008 23.551 -10.7979
ltibia 84.9605
lfoot -30.2219 -17.9432
ltoes -20.5433
454
root 13.894 15.495 5.18188 203.78 -88.5048 -204.466
lowerback 17.9724 0.0241839 -1.90098
upperback 3.27556 -0.497303 0.232547
thorax -6.52738 -0.280986 1.45344
lowerneck -17.2591 0.720064 0.751568
upperneck 7.26583 0.53373 1.94766
head 4.96596 0.410789 0.539371
rclavicle 7.50567e-015 -2.23012e-015
rhumerus -34.7404 -17.8176 -62.7739
rradius 39.6215
rwrist 16.855
rhand -27.1608 34.638
rfingers 7.12502
rthumb -0.575441 4.65904
lclavicle 7.50567e-015 -2.23012e-015
lhumerus -34.5101 13.9624 65.2974
lradius 35.3829
lwrist -21.4586
lhand -10.8282 23.6728
lfingers 7.12502
lthumb 15.186 53.0955
rfemur -36.5618 -11.5807 12.8317
rtibia 82.746
rfoot -30.5318 7.33314
rtoes -20.1794
lfemur -32.711 23.0648 -10.8635
ltibia 83.1433
lfoot -30.2212 -16.7358
ltoes -21.6467
455
root 13.8778 15.6429 5.18417 210.105 -88.4789 -210.502
lowerback 17.6434 -0.0856773 -2.05751
upperback 3.17212 -0.658313 0.199725
thorax -6.4532 -0.352659 1.54076
lowerneck -17.4492 0.714325 0.559783
upperneck 7.57321 0.554135 2.02825
head 5.09193 0.425296 0.599677
rclavicle 2.93207e-015 -8.26199e-015
rhumerus -34.9099 -18.0113 -62.8319
rradius 39.8258
rwrist 17.3218
rhand -26.8854 34.3779
rfingers 7.12502
rthumb -0.309397 4.39835
lclavicle 2.93207e-015 -8.26199e-015
lhumerus -34.7229 14.2998 65.4044
lradius 35.4095
lwrist -21.2919
lhand -11.6289 24.1117
lfingers 7.12502
lthumb 14.4146 53.5912
rfemur -35.7918 -11.1492 12.7808
rtibia 80.8606
rfoot -30.0399 7.19983
rtoes -19.0423
lfemur -32.111 22.2851 -11.3817
ltibia 81.2847
lfoot -29.6411 -16.7779
ltoes -18.2277
